Coordinates
version=1
nRows=8
nColumns=63
inDegrees=yes

Units are S.I. units (second, meters, Newtons, ...)
If the header above contains a line with 'inDegrees', this indicates whether rotational values are in degrees (yes) or radians (no).

endheader
time	pelvis_tilt	pelvis_list	pelvis_rotation	pelvis_tx	pelvis_ty	pelvis_tz	hip_flexion_r	hip_adduction_r	hip_rotation_r	knee_angle_r	knee_angle_r_beta	ankle_angle_r	subtalar_angle_r	mtp_angle_r	hip_flexion_l	hip_adduction_l	hip_rotation_l	knee_angle_l	knee_angle_l_beta	ankle_angle_l	subtalar_angle_l	mtp_angle_l	L5_S1_Flex_Ext	L5_S1_Lat_Bending	L5_S1_axial_rotation	L4_L5_Flex_Ext	L4_L5_Lat_Bending	L4_L5_axial_rotation	L3_L4_Flex_Ext	L3_L4_Lat_Bending	L3_L4_axial_rotation	L2_L3_Flex_Ext	L2_L3_Lat_Bending	L2_L3_axial_rotation	L1_L2_Flex_Ext	L1_L2_Lat_Bending	L1_L2_axial_rotation	L1_T12_Flex_Ext	L1_T12_Lat_Bending	L1_T12_axial_rotation	Abs_r3	Abs_r2	Abs_r1	Abs_t1	Abs_t2	neck_flexion	neck_bending	neck_rotation	arm_flex_r	arm_add_r	arm_rot_r	elbow_flex_r	pro_sup_r	wrist_flex_r	wrist_dev_r	arm_flex_l	arm_add_l	arm_rot_l	elbow_flex_l	pro_sup_l	wrist_flex_l	wrist_dev_l
      0.00800000	    -55.01771080	     -0.70270913	      1.15027105	     -0.26371768	      1.01355100	      0.01508111	    115.61143298	     -4.88947788	      2.28351013	     76.91441391	      1.34240976	     10.98661685	     -1.35927036	      0.00000000	    100.39309637	     -5.05482928	      2.99802772	     92.56262658	      1.61552260	      6.48859258	      6.03357396	      0.00000000	     -0.08256137	      0.01363672	     -0.66834261	     -0.15332472	      0.01813684	     -0.71011403	     -0.13564008	      0.03315633	     -0.71011403	     -0.09435939	      0.03315633	     -0.58479979	     -0.07666649	      0.02780800	     -0.54302837	     -0.04717557	      0.02112328	     -0.50125696	     -0.58972763	      0.15426133	     -3.71712112	      0.00000000	      0.00000000	     -0.00000000	      0.00000000	      0.00000001	     70.96120883	     -8.43583918	     10.37129718	     37.60313179	     58.07325841	      0.00000000	      4.94338541	     67.89830262	    -18.96915924	     15.71363065	     47.06228756	     58.73497854	      0.00000000	      4.94338541
      0.01700000	    -54.66065368	     -1.04646201	      2.48027441	     -0.26333349	      1.01210286	      0.01357301	    111.16610338	     -6.42137350	      1.03255394	     70.08706810	      1.22325010	     10.11459483	     -2.03047034	      0.00000000	    103.68075122	     -4.02905501	      4.31561039	     99.35300134	      1.73403700	      7.82530134	      5.12540092	      0.00000000	     -0.08354828	      0.02836852	     -0.85953003	     -0.15515751	      0.03773013	     -0.91325066	     -0.13726147	      0.06897522	     -0.91325066	     -0.09548733	      0.06897522	     -0.75208878	     -0.07758293	      0.05784909	     -0.69836815	     -0.04773949	      0.04394284	     -0.64464752	     -0.59677699	      0.32091039	     -4.78044816	      0.00000000	      0.00000000	     -0.00000000	      0.00000000	      0.00000001	     70.53704472	     -8.62293462	      9.62891757	     37.36186037	     57.90443949	      0.00000000	      4.94499743	     67.86227418	    -18.63836161	     16.93745206	     46.50096060	     58.80866740	      0.00000000	      4.94499743
      0.02500000	    -54.59072292	     -0.91679660	      2.96342090	     -0.26299667	      1.01167865	      0.01307757	    109.92906120	     -6.96149404	      0.80060514	     68.30920845	      1.19222060	      9.28690360	     -1.94667760	      0.00000000	    104.71295639	     -3.63112311	      4.48245110	    101.03441750	      1.76338324	      8.31218091	      4.85011972	      0.00000000	     -0.08402733	      0.00055494	     -0.95779515	     -0.15604715	      0.00073807	     -1.01765735	     -0.13804850	      0.00134929	     -1.01765735	     -0.09603484	      0.00134929	     -0.83807076	     -0.07802778	      0.00113164	     -0.77820856	     -0.04801322	      0.00085961	     -0.71834637	     -0.60019882	      0.00627762	     -5.32696931	      0.00000000	      0.00000000	     -0.00000000	      0.00000000	      0.00000001	     70.38374382	     -8.59574887	      9.54899884	     37.39034502	     57.88430071	      0.00000000	      4.94540265	     67.91890328	    -18.64766663	     16.99271896	     46.37670379	     58.80998005	      0.00000000	      4.94540265
      0.03300000	    -54.48058317	     -1.24827725	      2.96192326	     -0.26242661	      1.01106602	      0.01273994	    108.30412377	     -7.23908127	     -0.31494113	     66.19354036	      1.15529522	      8.25306509	     -2.16440923	      0.00000000	    106.06774644	     -3.60388505	      5.15545248	    103.13664405	      1.80007402	      8.93696709	      4.00698802	      0.00000000	     -0.08449258	      0.03622313	     -0.94996662	     -0.15691117	      0.04817676	     -1.00933954	     -0.13881286	      0.08807291	     -1.00933954	     -0.09656657	      0.08807291	     -0.83122080	     -0.07845981	      0.07386620	     -0.77184788	     -0.04827906	      0.05610962	     -0.71247497	     -0.60352206	      0.40976324	     -5.28342938	      0.00000000	      0.00000000	     -0.00000000	      0.00000000	      0.00000001	     70.30379071	     -8.68017917	      9.19215530	     37.30014778	     57.80946026	      0.00000000	      4.94666218	     67.87885665	    -18.46905777	     17.20055287	     46.19010439	     58.81394911	      0.00000000	      4.94666218
      0.04200000	    -54.39090005	     -1.01096505	      3.51151677	     -0.26179280	      1.01057180	      0.01221924	    106.69620147	     -7.82345319	     -0.57433294	     64.04671619	      1.11782607	      7.36396176	     -1.99254589	      0.00000000	    107.45393863	     -3.19229320	      5.14366627	    105.11363357	      1.83457899	      9.35838077	      3.69714678	      0.00000000	     -0.08541817	     -0.00970617	     -1.06265353	     -0.15863008	     -0.01290920	     -1.12906938	     -0.14033351	     -0.02359958	     -1.12906938	     -0.09762442	     -0.02359958	     -0.92982184	     -0.07931931	     -0.01979282	     -0.86340599	     -0.04880794	     -0.01503486	     -0.79699015	     -0.61013343	     -0.10979812	     -5.91016014	      0.00000000	      0.00000000	     -0.00000000	      0.00000000	      0.00000001	     70.08374745	     -8.65114565	      9.11148324	     37.28975275	     57.78966530	      0.00000000	      4.94704686	     67.95267563	    -18.45529771	     17.21371934	     46.07170324	     58.81037402	      0.00000000	      4.94704686
      0.05000000	    -54.28216697	     -1.29237953	      3.45664831	     -0.26102830	      1.00995696	      0.01193162	    104.73117292	     -7.98968512	     -1.73720548	     61.57992252	      1.07477240	      6.20772673	     -1.99613105	      0.00000000	    109.21348929	     -3.22167140	      5.66186754	    107.44345003	      1.87524196	      9.53875944	      2.71194956	      0.00000000	     -0.08539496	      0.01692590	     -1.04761913	     -0.15858699	      0.02251145	     -1.11309533	     -0.14029539	      0.04115364	     -1.11309533	     -0.09759791	      0.04115364	     -0.91666674	     -0.07929776	      0.03451530	     -0.85119054	     -0.04879468	      0.02621822	     -0.78571435	     -0.60996769	      0.19146919	     -5.82654333	      0.00000000	      0.00000000	     -0.00000000	      0.00000000	      0.00000001	     70.00281984	     -8.70654164	      8.67592418	     37.17368297	     57.67190294	      0.00000000	      4.94865768	     67.90676645	    -18.25334290	     17.35989523	     45.92072473	     58.77298624	      0.00000000	      4.94865768
      0.05800000	    -54.20344071	     -1.00097949	      4.02147154	     -0.26020763	      1.00955924	      0.01126603	    102.87622714	     -8.55879094	     -1.95230706	     59.25274748	      1.03415553	      5.26903837	     -1.75283610	      0.00000000	    110.89437893	     -2.81958211	      5.38801260	    109.49222310	      1.91099980	      9.79251433	      2.44664382	      0.00000000	     -0.08547257	     -0.03656738	     -1.15640390	     -0.15873110	     -0.04863461	     -1.22867914	     -0.14042288	     -0.08890992	     -1.22867914	     -0.09768660	     -0.08890992	     -1.01185341	     -0.07936983	     -0.07456820	     -0.93957817	     -0.04883902	     -0.05664287	     -0.86730292	     -0.61052200	     -0.41365748	     -6.43157155	      0.00000000	      0.00000000	     -0.00000000	      0.00000000	      0.00000001	     69.78207492	     -8.70298125	      8.56207789	     37.11918475	     57.62073272	      0.00000000	      4.94929399	     67.95576444	    -18.20427005	     17.39529188	     45.87555072	     58.74027582	      0.00000000	      4.94929399
      0.06700000	    -54.11715846	     -1.12858552	      3.98197283	     -0.25935435	      1.00914213	      0.01104954	    100.76966437	     -8.60541826	     -2.78428869	     56.71873223	      0.98992862	      4.21012418	     -1.55035088	      0.00000000	    112.88256443	     -2.86338746	      5.60237538	    111.70822857	      1.94967639	      9.60352614	      1.82069049	      0.00000000	     -0.08610358	     -0.03057862	     -1.13927622	     -0.15990297	     -0.04066956	     -1.21048098	     -0.14145958	     -0.07434885	     -1.21048098	     -0.09840779	     -0.07434885	     -0.99686669	     -0.07995579	     -0.06235591	     -0.92566193	     -0.04919959	     -0.04736628	     -0.85445716	     -0.61502929	     -0.34591142	     -6.33631254	      0.00000000	      0.00000000	     -0.00000000	      0.00000000	      0.00000001	     69.70029828	     -8.72546532	      8.09960179	     36.90609738	     57.51289035	      0.00000000	      4.95057985	     67.91316516	    -18.06377910	     17.60577663	     45.88522448	     58.72097784	      0.00000000	      4.95057985
